<svg width="34" height="35" viewBox="0 0 34 35" fill="none" xmlns="http://www.w3.org/2000/svg">
    <path d="M25 35.4167C25.7736 35.4167 26.5154 35.1094 27.0624 34.5624C27.6094 34.0154 27.9167 33.2735 27.9167 32.5C27.9167 31.7265 27.6094 30.9846 27.0624 30.4376C26.5154 29.8906 25.7736 29.5833 25 29.5833C24.2265 29.5833 23.4846 29.8906 22.9376 30.4376C22.3906 30.9846 22.0833 31.7265 22.0833 32.5C22.0833 33.2735 22.3906 34.0154 22.9376 34.5624C23.4846 35.1094 24.2265 35.4167 25 35.4167ZM11.6667 35.4167C12.4402 35.4167 13.1821 35.1094 13.7291 34.5624C14.276 34.0154 14.5833 33.2735 14.5833 32.5C14.5833 31.7265 14.276 30.9846 13.7291 30.4376C13.1821 29.8906 12.4402 29.5833 11.6667 29.5833C10.8931 29.5833 10.1513 29.8906 9.60427 30.4376C9.05729 30.9846 8.75 31.7265 8.75 32.5C8.75 33.2735 9.05729 34.0154 9.60427 34.5624C10.1513 35.1094 10.8931 35.4167 11.6667 35.4167ZM5.98333 4.48333L5.65 8.56667C5.58333 9.35 6.2 10 6.98333 10H32.5C33.2 10 33.7833 9.46667 33.8333 8.76667C34.05 5.81667 31.8 3.41667 28.85 3.41667H8.36667C8.2 2.68333 7.86667 1.98333 7.35 1.4C6.51667 0.516667 5.35 0 4.15 0H1.25C0.566667 0 0 0.566667 0 1.25C0 1.93333 0.566667 2.5 1.25 2.5H4.15C4.66667 2.5 5.15 2.71667 5.5 3.08333C5.85 3.46667 6.01667 3.96667 5.98333 4.48333ZM32.1 12.5H6.53333C5.83333 12.5 5.26667 13.0333 5.2 13.7167L4.6 20.9667C4.54278 21.6384 4.62566 22.3147 4.84338 22.9528C5.0611 23.5908 5.40893 24.1767 5.86484 24.6733C6.32075 25.17 6.87481 25.5666 7.49194 25.838C8.10907 26.1094 8.77583 26.2497 9.45 26.25H27.9833C30.4833 26.25 32.6833 24.2 32.8667 21.7L33.4167 13.9167C33.4325 13.7351 33.4101 13.5522 33.3509 13.3798C33.2917 13.2075 33.197 13.0494 33.073 12.9159C32.9489 12.7824 32.7982 12.6764 32.6306 12.6048C32.463 12.5331 32.2822 12.4974 32.1 12.5Z" fill="black"/>
</svg>
