<svg width="34" height="30" viewBox="0 0 34 30" fill="none" xmlns="http://www.w3.org/2000/svg">
    <path d="M24.0667 0C21.05 0 18.35 1.46667 16.6667 3.71667C15.8069 2.56469 14.6904 1.62898 13.4059 0.983824C12.1214 0.338663 10.7041 0.00180925 9.26667 0C4.15 0 0 4.16667 0 9.31667C0 11.3 0.316667 13.1333 0.866667 14.8333C3.5 23.1667 11.6167 28.15 15.6333 29.5167C16.2 29.7167 17.1333 29.7167 17.7 29.5167C21.7167 28.15 29.8333 23.1667 32.4667 14.8333C33.0167 13.1333 33.3333 11.3 33.3333 9.31667C33.3333 4.16667 29.1833 0 24.0667 0Z" fill="black"/>
</svg>
