<svg width="40" height="40" viewBox="0 0 40 40" fill="none" xmlns="http://www.w3.org/2000/svg">
    <path d="M4.58334 31.0833C3.9 31.0833 3.33334 30.5167 3.33334 29.8333V20.3333C3.25 15.8167 4.93334 11.55 8.06667 8.34999C11.2 5.16666 15.4 3.41666 19.9167 3.41666C29.15 3.41666 36.6667 10.9333 36.6667 20.1667V29.6667C36.6667 30.35 36.1 30.9167 35.4167 30.9167C34.7333 30.9167 34.1667 30.35 34.1667 29.6667V20.1667C34.1667 12.3167 27.7833 5.91666 19.9167 5.91666C16.0667 5.91666 12.5 7.39999 9.85 10.1C7.18334 12.8167 5.76667 16.4333 5.83334 20.3V29.8167C5.83334 30.5167 5.28334 31.0833 4.58334 31.0833Z" fill="black"/>
    <path d="M9.89998 20.75H9.68331C6.18331 20.75 3.33331 23.6 3.33331 27.1V30.2333C3.33331 33.7333 6.18331 36.5833 9.68331 36.5833H9.89998C13.4 36.5833 16.25 33.7333 16.25 30.2333V27.1C16.25 23.6 13.4 20.75 9.89998 20.75ZM30.3166 20.75H30.1C26.6 20.75 23.75 23.6 23.75 27.1V30.2333C23.75 33.7333 26.6 36.5833 30.1 36.5833H30.3166C33.8166 36.5833 36.6666 33.7333 36.6666 30.2333V27.1C36.6666 23.6 33.8166 20.75 30.3166 20.75Z" fill="black"/>
</svg>
