<svg width="40" height="40" viewBox="0 0 40 40" fill="none" xmlns="http://www.w3.org/2000/svg">
    <path d="M36.6666 20C36.6666 10.8167 29.1833 3.33334 20 3.33334C10.8166 3.33334 3.33331 10.8167 3.33331 20C3.33331 24.8333 5.41665 29.1833 8.71665 32.2333C8.71665 32.25 8.71665 32.25 8.69998 32.2667C8.86665 32.4333 9.06665 32.5667 9.23331 32.7167C9.33331 32.8 9.41665 32.8833 9.51665 32.95C9.81665 33.2 10.15 33.4333 10.4666 33.6667L10.8 33.9C11.1166 34.1167 11.45 34.3167 11.8 34.5C11.9166 34.5667 12.05 34.65 12.1666 34.7167C12.5 34.9 12.85 35.0667 13.2166 35.2167C13.35 35.2833 13.4833 35.35 13.6166 35.4C13.9833 35.55 14.35 35.6833 14.7166 35.8C14.85 35.85 14.9833 35.9 15.1166 35.9333C15.5166 36.05 15.9166 36.15 16.3166 36.25C16.4333 36.2833 16.55 36.3167 16.6833 36.3333C17.15 36.4333 17.6166 36.5 18.1 36.55C18.1666 36.55 18.2333 36.5667 18.3 36.5833C18.8666 36.6333 19.4333 36.6667 20 36.6667C20.5666 36.6667 21.1333 36.6333 21.6833 36.5833C21.75 36.5833 21.8166 36.5667 21.8833 36.55C22.3666 36.5 22.8333 36.4333 23.3 36.3333C23.4166 36.3167 23.5333 36.2667 23.6666 36.25C24.0666 36.15 24.4833 36.0667 24.8666 35.9333C25 35.8833 25.1333 35.8333 25.2666 35.8C25.6333 35.6667 26.0166 35.55 26.3666 35.4C26.5 35.35 26.6333 35.2833 26.7666 35.2167C27.1166 35.0667 27.4666 34.9 27.8166 34.7167C27.95 34.65 28.0666 34.5667 28.1833 34.5C28.5166 34.3 28.85 34.1167 29.1833 33.9C29.3 33.8333 29.4 33.75 29.5166 33.6667C29.85 33.4333 30.1666 33.2 30.4666 32.95C30.5666 32.8667 30.65 32.7833 30.75 32.7167C30.9333 32.5667 31.1166 32.4167 31.2833 32.2667C31.2833 32.25 31.2833 32.25 31.2666 32.2333C34.5833 29.1833 36.6666 24.8333 36.6666 20ZM28.2333 28.2833C23.7166 25.25 16.3166 25.25 11.7666 28.2833C11.0333 28.7667 10.4333 29.3333 9.93331 29.95C7.308 27.3038 5.83438 23.7276 5.83331 20C5.83331 12.1833 12.1833 5.83334 20 5.83334C27.8166 5.83334 34.1666 12.1833 34.1666 20C34.1666 23.8667 32.6 27.3833 30.0666 29.95C29.5833 29.3333 28.9666 28.7667 28.2333 28.2833Z" fill="black"/>
    <path d="M20 11.55C16.55 11.55 13.75 14.35 13.75 17.8C13.75 21.1833 16.4 23.9333 19.9167 24.0333H20.2167C21.8345 23.9801 23.3684 23.3001 24.4942 22.137C25.62 20.9739 26.2496 19.4187 26.25 17.8C26.25 14.35 23.45 11.55 20 11.55Z" fill="black"/>
</svg>
