<svg width="35" height="35" viewBox="0 0 35 35" fill="none" xmlns="http://www.w3.org/2000/svg">
    <path d="M32.9167 32.9167L29.8333 29.8333M16.7292 31.375C18.6525 31.375 20.557 30.9962 22.3339 30.2602C24.1108 29.5241 25.7254 28.4453 27.0853 27.0853C28.4453 25.7254 29.5241 24.1108 30.2602 22.3339C30.9962 20.557 31.375 18.6525 31.375 16.7292C31.375 14.8059 30.9962 12.9014 30.2602 11.1245C29.5241 9.34754 28.4453 7.733 27.0853 6.37301C25.7254 5.01302 24.1108 3.93421 22.3339 3.19819C20.557 2.46217 18.6525 2.08334 16.7292 2.08334C12.8449 2.08334 9.11963 3.62638 6.37301 6.37301C3.62638 9.11963 2.08334 12.8449 2.08334 16.7292C2.08334 20.6135 3.62638 24.3387 6.37301 27.0853C9.11963 29.832 12.8449 31.375 16.7292 31.375Z" stroke="black" stroke-width="2.5" stroke-linecap="round" stroke-linejoin="round"/>
</svg>
